<mxfile host="app.diagrams.net" agent="Mozilla/5.0 (Windows NT 10.0; Win64; x64) AppleWebKit/537.36 (KHTML, like Gecko) Chrome/139.0.0.0 Safari/537.36" version="28.1.1">
  <diagram name="페이지-1" id="bKpUtWNxnN0vEnPPPZQp">
    <mxGraphModel dx="1426" dy="785" grid="1" gridSize="10" guides="1" tooltips="1" connect="1" arrows="1" fold="1" page="1" pageScale="1" pageWidth="827" pageHeight="1169" math="0" shadow="0">
      <root>
        <mxCell id="0" />
        <mxCell id="1" parent="0" />
        <mxCell id="eJKFocxo8de-zr06Rckv-6" value="&lt;font style=&quot;font-size: 24px;&quot;&gt;불법 주정차 관리 시스템&lt;/font&gt;" style="rounded=1;whiteSpace=wrap;html=1;imageVerticalAlign=middle;spacingTop=-450;" parent="1" vertex="1">
          <mxGeometry x="200" y="60" width="996" height="620" as="geometry" />
        </mxCell>
        <mxCell id="eJKFocxo8de-zr06Rckv-1" value="이용자" style="shape=umlActor;verticalLabelPosition=bottom;verticalAlign=top;html=1;outlineConnect=0;" parent="1" vertex="1">
          <mxGeometry x="60" y="290" width="30" height="60" as="geometry" />
        </mxCell>
        <mxCell id="eJKFocxo8de-zr06Rckv-7" value="불법 주정차 발생" style="ellipse;whiteSpace=wrap;html=1;" parent="1" vertex="1">
          <mxGeometry x="250" y="270" width="120" height="80" as="geometry" />
        </mxCell>
        <mxCell id="eJKFocxo8de-zr06Rckv-8" value="주변 주차장&lt;div&gt;목록, 위치 제공&lt;/div&gt;" style="ellipse;whiteSpace=wrap;html=1;" parent="1" vertex="1">
          <mxGeometry x="420" y="220" width="120" height="80" as="geometry" />
        </mxCell>
        <mxCell id="eJKFocxo8de-zr06Rckv-12" value="" style="endArrow=classic;html=1;rounded=0;entryX=0;entryY=0.5;entryDx=0;entryDy=0;" parent="1" source="eJKFocxo8de-zr06Rckv-1" target="eJKFocxo8de-zr06Rckv-7" edge="1">
          <mxGeometry width="50" height="50" relative="1" as="geometry">
            <mxPoint x="200" y="350" as="sourcePoint" />
            <mxPoint x="250" y="300" as="targetPoint" />
          </mxGeometry>
        </mxCell>
        <mxCell id="eJKFocxo8de-zr06Rckv-13" value="주차장 목록 제공" style="ellipse;whiteSpace=wrap;html=1;" parent="1" vertex="1">
          <mxGeometry x="250" y="140" width="120" height="80" as="geometry" />
        </mxCell>
        <mxCell id="eJKFocxo8de-zr06Rckv-14" value="로그인" style="ellipse;whiteSpace=wrap;html=1;" parent="1" vertex="1">
          <mxGeometry x="670" y="370" width="120" height="80" as="geometry" />
        </mxCell>
        <mxCell id="eJKFocxo8de-zr06Rckv-15" value="비밀번호 재설정" style="ellipse;whiteSpace=wrap;html=1;" parent="1" vertex="1">
          <mxGeometry x="1040" y="240" width="120" height="80" as="geometry" />
        </mxCell>
        <mxCell id="eJKFocxo8de-zr06Rckv-16" value="아이디 찾기" style="ellipse;whiteSpace=wrap;html=1;" parent="1" vertex="1">
          <mxGeometry x="910" y="240" width="120" height="80" as="geometry" />
        </mxCell>
        <mxCell id="eJKFocxo8de-zr06Rckv-17" value="회원가입" style="ellipse;whiteSpace=wrap;html=1;" parent="1" vertex="1">
          <mxGeometry x="720" y="240" width="120" height="80" as="geometry" />
        </mxCell>
        <mxCell id="eJKFocxo8de-zr06Rckv-18" value="계정인증" style="ellipse;whiteSpace=wrap;html=1;" parent="1" vertex="1">
          <mxGeometry x="900" y="130" width="120" height="80" as="geometry" />
        </mxCell>
        <mxCell id="eJKFocxo8de-zr06Rckv-19" value="주차장&amp;nbsp;&lt;div&gt;상세 정보 제공&lt;/div&gt;" style="ellipse;whiteSpace=wrap;html=1;" parent="1" vertex="1">
          <mxGeometry x="580" y="170" width="120" height="80" as="geometry" />
        </mxCell>
        <mxCell id="eJKFocxo8de-zr06Rckv-20" value="통계 보기" style="ellipse;whiteSpace=wrap;html=1;" parent="1" vertex="1">
          <mxGeometry x="250" y="480" width="120" height="80" as="geometry" />
        </mxCell>
        <mxCell id="eJKFocxo8de-zr06Rckv-22" value="주차장 목록 정렬" style="ellipse;whiteSpace=wrap;html=1;" parent="1" vertex="1">
          <mxGeometry x="420" y="80" width="120" height="80" as="geometry" />
        </mxCell>
        <mxCell id="eJKFocxo8de-zr06Rckv-23" value="회원 정보 수정" style="ellipse;whiteSpace=wrap;html=1;" parent="1" vertex="1">
          <mxGeometry x="670" y="520" width="120" height="80" as="geometry" />
        </mxCell>
        <mxCell id="eJKFocxo8de-zr06Rckv-24" value="회원 탈퇴" style="ellipse;whiteSpace=wrap;html=1;" parent="1" vertex="1">
          <mxGeometry x="840" y="520" width="120" height="80" as="geometry" />
        </mxCell>
        <mxCell id="eJKFocxo8de-zr06Rckv-25" value="불법 주정차&amp;nbsp;&lt;div&gt;범칙금 정보 제공&lt;/div&gt;" style="ellipse;whiteSpace=wrap;html=1;" parent="1" vertex="1">
          <mxGeometry x="420" y="360" width="120" height="80" as="geometry" />
        </mxCell>
        <mxCell id="eJKFocxo8de-zr06Rckv-26" value="기간 선택" style="ellipse;whiteSpace=wrap;html=1;" parent="1" vertex="1">
          <mxGeometry x="420" y="480" width="120" height="80" as="geometry" />
        </mxCell>
        <mxCell id="eJKFocxo8de-zr06Rckv-27" value="지역 선택" style="ellipse;whiteSpace=wrap;html=1;" parent="1" vertex="1">
          <mxGeometry x="420" y="585" width="120" height="80" as="geometry" />
        </mxCell>
        <mxCell id="eJKFocxo8de-zr06Rckv-28" value="" style="endArrow=classic;html=1;rounded=0;" parent="1" edge="1">
          <mxGeometry width="50" height="50" relative="1" as="geometry">
            <mxPoint x="90" y="320" as="sourcePoint" />
            <mxPoint x="250" y="180" as="targetPoint" />
          </mxGeometry>
        </mxCell>
        <mxCell id="eJKFocxo8de-zr06Rckv-29" value="" style="endArrow=classic;html=1;rounded=0;entryX=0;entryY=0.5;entryDx=0;entryDy=0;" parent="1" target="eJKFocxo8de-zr06Rckv-20" edge="1">
          <mxGeometry width="50" height="50" relative="1" as="geometry">
            <mxPoint x="90" y="320" as="sourcePoint" />
            <mxPoint x="600" y="410" as="targetPoint" />
            <Array as="points" />
          </mxGeometry>
        </mxCell>
        <mxCell id="eJKFocxo8de-zr06Rckv-34" value="&lt;div&gt;&lt;br&gt;&lt;/div&gt;&lt;div&gt;extend&lt;/div&gt;" style="endArrow=none;dashed=1;html=1;rounded=0;entryX=0;entryY=0.5;entryDx=0;entryDy=0;endFill=0;labelBackgroundColor=none;startArrow=classic;startFill=1;" parent="1" target="eJKFocxo8de-zr06Rckv-26" edge="1">
          <mxGeometry width="50" height="50" relative="1" as="geometry">
            <mxPoint x="370" y="520" as="sourcePoint" />
            <mxPoint x="420" y="470" as="targetPoint" />
          </mxGeometry>
        </mxCell>
        <mxCell id="eJKFocxo8de-zr06Rckv-35" value="extend" style="endArrow=classic;dashed=1;html=1;rounded=0;exitX=0;exitY=0.5;exitDx=0;exitDy=0;endFill=1;startArrow=none;startFill=0;" parent="1" source="eJKFocxo8de-zr06Rckv-27" edge="1">
          <mxGeometry width="50" height="50" relative="1" as="geometry">
            <mxPoint x="320" y="570" as="sourcePoint" />
            <mxPoint x="370" y="520" as="targetPoint" />
          </mxGeometry>
        </mxCell>
        <mxCell id="eJKFocxo8de-zr06Rckv-36" value="include" style="endArrow=none;dashed=1;html=1;rounded=0;exitX=0;exitY=0.5;exitDx=0;exitDy=0;endFill=0;startArrow=classic;startFill=1;" parent="1" source="eJKFocxo8de-zr06Rckv-25" edge="1">
          <mxGeometry width="50" height="50" relative="1" as="geometry">
            <mxPoint x="320" y="360" as="sourcePoint" />
            <mxPoint x="370" y="310" as="targetPoint" />
          </mxGeometry>
        </mxCell>
        <mxCell id="eJKFocxo8de-zr06Rckv-39" value="&lt;div&gt;&lt;br&gt;&lt;/div&gt;&lt;div&gt;&lt;br&gt;&lt;/div&gt;&lt;div&gt;extend&lt;/div&gt;" style="endArrow=none;dashed=1;html=1;rounded=0;startArrow=classic;startFill=1;labelBackgroundColor=none;" parent="1" source="eJKFocxo8de-zr06Rckv-8" target="eJKFocxo8de-zr06Rckv-19" edge="1">
          <mxGeometry width="50" height="50" relative="1" as="geometry">
            <mxPoint x="540" y="305" as="sourcePoint" />
            <mxPoint x="590" y="255" as="targetPoint" />
          </mxGeometry>
        </mxCell>
        <mxCell id="eJKFocxo8de-zr06Rckv-40" value="include" style="endArrow=classic;dashed=1;html=1;rounded=0;entryX=0;entryY=1;entryDx=0;entryDy=0;exitX=0.5;exitY=0;exitDx=0;exitDy=0;startArrow=none;startFill=0;endFill=1;" parent="1" source="eJKFocxo8de-zr06Rckv-14" target="eJKFocxo8de-zr06Rckv-17" edge="1">
          <mxGeometry width="50" height="50" relative="1" as="geometry">
            <mxPoint x="730" y="370" as="sourcePoint" />
            <mxPoint x="780" y="320" as="targetPoint" />
          </mxGeometry>
        </mxCell>
        <mxCell id="eJKFocxo8de-zr06Rckv-41" value="include" style="endArrow=classic;dashed=1;html=1;rounded=0;endFill=1;exitX=1;exitY=0;exitDx=0;exitDy=0;" parent="1" edge="1" source="eJKFocxo8de-zr06Rckv-17">
          <mxGeometry width="50" height="50" relative="1" as="geometry">
            <mxPoint x="870" y="250" as="sourcePoint" />
            <mxPoint x="920" y="200" as="targetPoint" />
          </mxGeometry>
        </mxCell>
        <mxCell id="eJKFocxo8de-zr06Rckv-42" value="include" style="endArrow=classic;dashed=1;html=1;rounded=0;exitX=0.5;exitY=0;exitDx=0;exitDy=0;endFill=1;" parent="1" source="eJKFocxo8de-zr06Rckv-16" edge="1">
          <mxGeometry width="50" height="50" relative="1" as="geometry">
            <mxPoint x="910" y="260" as="sourcePoint" />
            <mxPoint x="960" y="210" as="targetPoint" />
          </mxGeometry>
        </mxCell>
        <mxCell id="eJKFocxo8de-zr06Rckv-43" value="include" style="endArrow=none;dashed=1;html=1;rounded=0;entryX=0;entryY=0;entryDx=0;entryDy=0;endFill=0;startArrow=classic;startFill=1;" parent="1" target="eJKFocxo8de-zr06Rckv-15" edge="1">
          <mxGeometry width="50" height="50" relative="1" as="geometry">
            <mxPoint x="1000" y="200" as="sourcePoint" />
            <mxPoint x="1050" y="150" as="targetPoint" />
          </mxGeometry>
        </mxCell>
        <mxCell id="eJKFocxo8de-zr06Rckv-44" value="extend" style="endArrow=classic;dashed=1;html=1;rounded=0;startArrow=none;startFill=0;endFill=1;" parent="1" source="eJKFocxo8de-zr06Rckv-23" edge="1">
          <mxGeometry width="50" height="50" relative="1" as="geometry">
            <mxPoint x="680" y="500" as="sourcePoint" />
            <mxPoint x="730" y="450" as="targetPoint" />
          </mxGeometry>
        </mxCell>
        <mxCell id="eJKFocxo8de-zr06Rckv-45" value="extend" style="endArrow=classic;dashed=1;html=1;rounded=0;exitX=0;exitY=0;exitDx=0;exitDy=0;endFill=1;" parent="1" source="eJKFocxo8de-zr06Rckv-24" edge="1">
          <mxGeometry width="50" height="50" relative="1" as="geometry">
            <mxPoint x="720" y="490" as="sourcePoint" />
            <mxPoint x="790" y="410" as="targetPoint" />
          </mxGeometry>
        </mxCell>
        <mxCell id="eJKFocxo8de-zr06Rckv-46" value="include" style="endArrow=classic;dashed=1;html=1;rounded=0;endFill=1;startArrow=none;startFill=0;" parent="1" edge="1">
          <mxGeometry width="50" height="50" relative="1" as="geometry">
            <mxPoint x="370" y="310" as="sourcePoint" />
            <mxPoint x="670" y="410" as="targetPoint" />
          </mxGeometry>
        </mxCell>
        <mxCell id="eJKFocxo8de-zr06Rckv-47" value="include" style="endArrow=classic;dashed=1;html=1;rounded=0;entryX=0;entryY=0.5;entryDx=0;entryDy=0;endFill=1;startArrow=none;startFill=0;" parent="1" target="eJKFocxo8de-zr06Rckv-14" edge="1">
          <mxGeometry width="50" height="50" relative="1" as="geometry">
            <mxPoint x="350" y="490" as="sourcePoint" />
            <mxPoint x="630" y="380" as="targetPoint" />
          </mxGeometry>
        </mxCell>
        <mxCell id="eJKFocxo8de-zr06Rckv-48" value="extend" style="endArrow=none;dashed=1;html=1;rounded=0;exitX=1;exitY=0.5;exitDx=0;exitDy=0;startArrow=classic;startFill=1;entryX=0;entryY=0.5;entryDx=0;entryDy=0;" parent="1" source="eJKFocxo8de-zr06Rckv-17" edge="1" target="eJKFocxo8de-zr06Rckv-16">
          <mxGeometry width="50" height="50" relative="1" as="geometry">
            <mxPoint x="770" y="380" as="sourcePoint" />
            <mxPoint x="900" y="280" as="targetPoint" />
          </mxGeometry>
        </mxCell>
        <mxCell id="eJKFocxo8de-zr06Rckv-49" value="extend" style="endArrow=none;dashed=1;html=1;rounded=0;exitX=0.5;exitY=1;exitDx=0;exitDy=0;startArrow=classic;startFill=1;edgeStyle=orthogonalEdgeStyle;entryX=0.5;entryY=1;entryDx=0;entryDy=0;" parent="1" source="eJKFocxo8de-zr06Rckv-17" edge="1" target="eJKFocxo8de-zr06Rckv-15">
          <mxGeometry width="50" height="50" relative="1" as="geometry">
            <mxPoint x="801" y="359.99999999999994" as="sourcePoint" />
            <mxPoint x="1050" y="342.96" as="targetPoint" />
            <Array as="points">
              <mxPoint x="780" y="343" />
              <mxPoint x="1100" y="343" />
            </Array>
          </mxGeometry>
        </mxCell>
        <mxCell id="Z5WOrwVU2p5nSCzaWC56-1" value="extend" style="endArrow=classic;html=1;rounded=0;entryX=1;entryY=0.5;entryDx=0;entryDy=0;dashed=1;exitX=0;exitY=0.5;exitDx=0;exitDy=0;" parent="1" source="eJKFocxo8de-zr06Rckv-22" target="eJKFocxo8de-zr06Rckv-13" edge="1">
          <mxGeometry width="50" height="50" relative="1" as="geometry">
            <mxPoint x="414" y="180" as="sourcePoint" />
            <mxPoint x="464" y="130" as="targetPoint" />
          </mxGeometry>
        </mxCell>
        <mxCell id="Z5WOrwVU2p5nSCzaWC56-3" value="include" style="endArrow=classic;html=1;rounded=0;entryX=0;entryY=0.5;entryDx=0;entryDy=0;dashed=1;endFill=1;startArrow=none;startFill=0;" parent="1" target="eJKFocxo8de-zr06Rckv-8" edge="1">
          <mxGeometry width="50" height="50" relative="1" as="geometry">
            <mxPoint x="370" y="300" as="sourcePoint" />
            <mxPoint x="420" y="250" as="targetPoint" />
          </mxGeometry>
        </mxCell>
        <mxCell id="Iw-WgBgBNfO--c0qWATv-5" value="extend" style="endArrow=classic;html=1;rounded=0;entryX=0.975;entryY=0.6;entryDx=0;entryDy=0;entryPerimeter=0;dashed=1;" edge="1" parent="1" target="eJKFocxo8de-zr06Rckv-13">
          <mxGeometry width="50" height="50" relative="1" as="geometry">
            <mxPoint x="580" y="210" as="sourcePoint" />
            <mxPoint x="630" y="160" as="targetPoint" />
          </mxGeometry>
        </mxCell>
      </root>
    </mxGraphModel>
  </diagram>
</mxfile>
